<svg width="57" height="57" fill="none" xmlns="http://www.w3.org/2000/svg"><path d="M34.523 50.977c-12.414 3.327-25.174-4.04-28.5-16.454-3.327-12.414 4.04-25.174 16.454-28.5 12.414-3.327 25.174 4.04 28.5 16.454 3.327 12.414-4.04 25.174-16.454 28.5zM23.682 10.518c-9.931 2.661-15.825 12.87-13.164 22.8 2.661 9.931 12.87 15.825 22.8 13.164 9.931-2.661 15.825-12.87 13.164-22.8-2.661-9.931-12.87-15.825-22.8-13.164z" fill="#fff"/><g clip-path="url(#clip0_1_168)" fill="#fff"><path d="M26.204 16.093c-.97.018-1.705.054-1.903.09-.367.064-.546.19-.546.385v.113H22.44l-.377.362c-.593.57-1.262 1.606-1.964 3.04-.39.81-.419.85-.546.85-.113 0-.132-.018-.132-.127.005-.226.165-.493.367-.592.189-.09.269-.2.217-.285-.038-.059-1.046-.01-1.61.077-.891.14-1.193.357-1.3.94-.03.154-.02.186.112.304a.734.734 0 00.297.158 32.75 32.75 0 001.766.113h.175l-.34.326c-.334.312-.438.488-.438.746 0 .127-.094.218-.72.738-.278.23-.542.466-.58.52-.127.186-.16 1.466-.127 4.786.028 3.072.033 3.162.123 3.275.179.217.32.24 1.493.24 1.215 0 1.342-.023 1.507-.28.07-.113.094-.227.094-.48v-.335l.386.027c.217.014.721.037 1.122.055l.73.022.621-.18c.344-.105.632-.186.641-.186.01 0 .033.04.047.09.024.09.066.09 4.131.09s4.107 0 4.131-.09c.014-.05.033-.09.047-.09.014 0 .297.081.64.185l.622.181.73-.022c.4-.018.905-.041 1.122-.055l.386-.027v.335c0 .253.023.367.094.48.165.257.292.28 1.507.28 1.173 0 1.314-.023 1.493-.24.09-.113.095-.203.123-3.275.033-3.32 0-4.6-.127-4.786-.038-.054-.302-.29-.58-.52-.626-.52-.72-.611-.72-.738 0-.258-.104-.434-.429-.741l-.334-.317.96-.055c1.009-.058 1.207-.104 1.338-.298.057-.081.062-.145.02-.321-.123-.52-.42-.72-1.282-.855-.565-.086-1.573-.136-1.61-.077-.053.086.027.194.216.285.202.1.362.366.367.593 0 .108-.019.126-.132.126-.127 0-.155-.04-.546-.85-.702-1.434-1.37-2.47-1.964-3.04l-.377-.362h-1.314v-.109c0-.19-.146-.307-.476-.37-.504-.105-3.208-.155-5.836-.11zm3.25 1.221c1.23.055 4.093.213 4.48.253l.268.028.683 1.293c.626 1.195 1.022 2.036 1.022 2.18 0 .05-.688.055-3.683.023-2.03-.022-3.868-.04-4.089-.04-.221 0-2.058.018-4.084.04-3 .032-3.688.028-3.688-.022 0-.145.396-.986 1.022-2.18l.683-1.294.269-.027c.362-.037 3.226-.204 4.29-.25 1.268-.054 1.65-.054 2.827-.004zm-9.812 6.921c.41.123 1.343.371 2.068.548l1.328.321.274-.127.278-.13h1.907c1.823 0 1.917.004 2.068.09.306.176.358.285.372.864.02.565-.014.71-.212.886-.155.14-.593.168-1.945.122-1.498-.054-1.898-.171-2.421-.728l-.269-.28-.433-.018-.433-.018-.354.23c-.353.23-.353.23-.735.23-.39 0-1.921-.22-2.373-.343-.636-.172-.867-.439-.867-.99 0-.38.08-.634.235-.729.095-.063.4-.127.688-.15.042 0 .415.096.824.222zm18.422-.108c.212.081.307.312.311.742.005.543-.179.787-.73.972-.348.123-1.776.344-2.35.367l-.542.023L34.4 26l-.353-.235-.424.018-.424.018-.354.339c-.277.271-.41.366-.63.443-.472.168-1.103.231-2.332.24-1.253.005-1.282 0-1.465-.294-.08-.122-.095-.23-.095-.67 0-.47.01-.542.109-.674a.908.908 0 01.268-.244c.16-.09.231-.095 2.073-.095h1.908l.268.131.269.132 1.337-.322a44.112 44.112 0 002.063-.552c.65-.203.754-.221 1.008-.198.15.014.296.044.438.09zM19.006 27.23c.104.108.202.221.293.34.078.105.163.207.254.303.08.045 1.04.212 1.997.343 1.606.217 1.64.227 1.64.313 0 .04-.142.316-.316.615-.32.534-.32.534-.617.665-.42.185-1.117.353-1.447.353-.343 0-1.276-.109-1.587-.181a.7.7 0 01-.315-.162.66.66 0 01-.189-.29c-.099-.304-.193-1.023-.226-1.688l-.028-.665h.235c.128 0 .264.027.306.054zm18.96.633c-.038.756-.16 1.557-.288 1.81a.553.553 0 01-.235.235c-.217.095-.89.204-1.508.235-.466.028-.57.019-.97-.085a6.528 6.528 0 01-.754-.25c-.306-.13-.306-.135-.603-.633-.367-.61-.386-.674-.24-.728.061-.023.452-.081.867-.136.88-.117 2.058-.298 2.421-.375.23-.05.269-.077.513-.371.147-.177.288-.335.311-.353.024-.018.156-.036.283-.036h.23l-.028.688zm-6.383.575c.273.027.551.068.612.09.165.06.391.3.688.724.236.34.264.412.268.611.005.2-.014.235-.117.285-.617.285-5.865.39-8.596.172-1.22-.1-1.376-.154-1.329-.484.042-.299.598-1.086.89-1.258.156-.09.457-.126 1.428-.18.852-.05 5.544-.019 6.156.04z"/><path d="M24.574 24.96c-.697.022-.88.04-.98.103-.15.1-.16.267-.028.674.141.44.273.548.923.765.415.14.433.14 1.691.172.806.022 1.31.018 1.376-.01.216-.094.296-.501.202-1.049-.099-.57-.155-.606-1.013-.638-1.154-.04-1.337-.04-2.171-.018zm5.256.004c-.95.032-1.14.072-1.22.258-.07.158-.145.61-.145.855 0 .253.117.533.25.588.065.027.583.031 1.375.009 1.257-.032 1.276-.032 1.69-.172.65-.217.783-.326.924-.765.212-.651.136-.732-.716-.76-.32-.009-.74-.022-.933-.031-.193-.01-.744 0-1.224.018zm-11.144 2.922c.052.792.189 1.602.302 1.76.094.14.701.262 1.554.312.5.032.89-.04 1.53-.28l.316-.118.288-.47c.155-.263.278-.48.268-.485a20.82 20.82 0 00-.791-.113c-1.041-.135-2.336-.348-2.567-.42-.142-.046-.245-.136-.438-.376-.18-.222-.292-.321-.372-.33l-.123-.018.033.538zm18.639-.208c-.151.195-.306.344-.4.38-.165.068-1.442.28-2.62.434a12.84 12.84 0 00-.79.113c-.01.01.107.213.258.466.26.43.287.457.532.566.575.244.933.321 1.484.312.537-.005 1.343-.109 1.55-.199a.461.461 0 00.184-.217c.098-.23.211-.973.25-1.624l.032-.552h-.113c-.09 0-.174.077-.367.321zm-11.776.9c-1.116.055-1.399.1-1.569.258-.202.181-.645.837-.678 1-.033.163-.023.163.476.235 1.804.249 7.96.217 9.034-.05.274-.068.236-.226-.193-.81-.386-.524-.386-.524-1.145-.587-.748-.064-4.851-.095-5.925-.046z"/></g><path d="M22.703 41.245a4.96 4.96 0 01-1.272-.16c-.405-.112-.739-.259-1-.44l.408-1.144c.245.165.533.296.864.392.33.096.664.144 1 .144.352 0 .597-.045.736-.136.144-.096.216-.214.216-.352a.35.35 0 00-.152-.296c-.096-.075-.27-.139-.52-.192l-.936-.2c-1.013-.219-1.52-.75-1.52-1.592 0-.368.099-.69.296-.968a1.94 1.94 0 01.84-.64c.357-.155.773-.232 1.248-.232.39 0 .757.056 1.104.168.352.106.637.253.856.44l-.408 1.072a2.28 2.28 0 00-.704-.344 2.82 2.82 0 00-.864-.128c-.299 0-.528.053-.688.16-.16.101-.24.235-.24.4a.35.35 0 00.144.288c.096.075.267.139.512.192l.928.2c1.03.218 1.544.736 1.544 1.552 0 .368-.099.688-.296.96a1.904 1.904 0 01-.832.632c-.357.15-.779.224-1.264.224zm4.326-.088v-4.44h-1.792v-1.2h5.056v1.2H28.5v4.44h-1.472zm6.34.088c-.624 0-1.16-.12-1.608-.36a2.493 2.493 0 01-1.032-1.016c-.235-.438-.352-.95-.352-1.536 0-.587.117-1.096.352-1.528a2.49 2.49 0 011.032-1.016c.448-.24.984-.36 1.608-.36.373 0 .733.058 1.08.176.347.112.627.261.84.448l-.44 1.16a2.668 2.668 0 00-.704-.376 2.093 2.093 0 00-.72-.128c-.496 0-.87.141-1.12.424-.25.277-.376.677-.376 1.2 0 .528.125.933.376 1.216.25.277.624.416 1.12.416.245 0 .485-.04.72-.12a2.87 2.87 0 00.704-.384l.44 1.16a2.456 2.456 0 01-.84.456 3.491 3.491 0 01-1.08.168z" fill="#fff"/><defs><clipPath id="clip0_1_168"><path fill="#fff" transform="translate(17.08 16.076)" d="M0 0h22.105v16.076H0z"/></clipPath></defs></svg>