<svg width="147" height="147" fill="none" xmlns="http://www.w3.org/2000/svg"><path d="M114.335 80.421c0-25.768-19.465-46.734-43.39-46.734-23.923 0-43.382 20.966-43.382 46.734 0 11.926 4.177 23.281 11.76 31.985 1.022 1.164 2.719 1.219 3.797.123l4.68-4.741a3.065 3.065 0 00.122-4.086 35.358 35.358 0 01-8.55-23.275c0-18.76 14.16-34.018 31.574-34.018 17.413 0 31.58 15.258 31.58 34.018a35.337 35.337 0 01-8.556 23.275l.006.007a3.054 3.054 0 00.129 4.079l4.679 4.734c1.078 1.103 2.781 1.042 3.797-.122 7.577-8.698 11.754-20.053 11.754-31.973v-.006zm20.415.123a59.38 59.38 0 00-2.879-18.314v-.018l-.012-.019a2.958 2.958 0 00-3.657-1.837l-6.7 2.015a2.822 2.822 0 00-1.716 1.368 2.818 2.818 0 00-.214 2.184h-.006a47.504 47.504 0 01-4.832 39.611h.006a2.783 2.783 0 001.022 3.883l6.009 3.491c1.391.809 3.185.368 4.024-.974a59.665 59.665 0 008.955-31.396" fill="#fff"/><path d="M32.267 105.546a47.518 47.518 0 01-4.827-39.617 2.826 2.826 0 00-1.93-3.552l-6.694-2.021a2.953 2.953 0 00-3.663 1.843h-.012a59.557 59.557 0 006.064 49.754h.012a2.989 2.989 0 004.012.955l6.015-3.491a2.788 2.788 0 001.023-3.865v-.006z" fill="#fff"/></svg>