<svg width="147" height="147" viewBox="0 0 147 147" fill="none" xmlns="http://www.w3.org/2000/svg">
<path d="M117.6 14.7H95.55V22.05H51.45V14.7H29.4V124.95H51.45V117.6H95.55V124.95H117.6V14.7ZM44.1 22.05V29.4H36.75V22.05H44.1ZM110.25 22.05V29.4H102.9V22.05H110.25ZM95.55 29.4V66.15H51.45V29.4H95.55ZM44.1 36.75V44.1H36.75V36.75H44.1ZM110.25 36.75V44.1H102.9V36.75H110.25ZM44.1 51.45V58.8H36.75V51.45H44.1ZM110.25 51.45V58.8H102.9V51.45H110.25ZM44.1 66.15V73.5H36.75V66.15H44.1ZM110.25 66.15V73.5H102.9V66.15H110.25ZM95.55 73.5V110.25H51.45V73.5H95.55ZM44.1 80.85V88.2H36.75V80.85H44.1ZM110.25 80.85V88.2H102.9V80.85H110.25ZM44.1 95.55V102.9H36.75V95.55H44.1ZM110.25 95.55V102.9H102.9V95.55H110.25ZM44.1 110.25V117.6H36.75V110.25H44.1ZM110.25 110.25V117.6H102.9V110.25H110.25Z" fill="white"/>
</svg>
