<svg width="147" height="147" fill="none" xmlns="http://www.w3.org/2000/svg"><path d="M117.6 14.7H95.55v7.35h-44.1V14.7H29.4v110.25h22.05v-7.35h44.1v7.35h22.05V14.7zm-73.5 7.35v7.35h-7.35v-7.35h7.35zm66.15 0v7.35h-7.35v-7.35h7.35zm-14.7 7.35v36.75h-44.1V29.4h44.1zM44.1 36.75v7.35h-7.35v-7.35h7.35zm66.15 0v7.35h-7.35v-7.35h7.35zM44.1 51.45v7.35h-7.35v-7.35h7.35zm66.15 0v7.35h-7.35v-7.35h7.35zM44.1 66.15v7.35h-7.35v-7.35h7.35zm66.15 0v7.35h-7.35v-7.35h7.35zm-14.7 7.35v36.75h-44.1V73.5h44.1zM44.1 80.85v7.35h-7.35v-7.35h7.35zm66.15 0v7.35h-7.35v-7.35h7.35zM44.1 95.55v7.35h-7.35v-7.35h7.35zm66.15 0v7.35h-7.35v-7.35h7.35zm-66.15 14.7v7.35h-7.35v-7.35h7.35zm66.15 0v7.35h-7.35v-7.35h7.35z" fill="#fff"/></svg>