<svg width="147" height="147" fill="none" xmlns="http://www.w3.org/2000/svg"><g clip-path="url(#clip0_9_62)" fill="#fff"><path d="M25.18 3.876c-4.853.833-8.556 2.326-12.863 5.168C7.953 11.972 3.33 16.882.574 21.619l-.631 1.063 1.378.603c.746.344 1.435.488 1.464.344.344-.976 3.474-5.168 5.398-7.235 5.57-5.886 12.345-9.274 19.896-9.934l2.355-.201V3.445l-1.493.03c-.833.028-2.527.2-3.761.401zm2.67 11.657c-4.422.459-8.01 2.153-11.743 5.627-2.01 1.837-4.623 5.254-4.623 6 0 .288 1.78 1.264 2.24 1.264.115 0 .775-.833 1.435-1.838 2.958-4.479 8.068-7.665 13.207-8.154l1.924-.2.086-1.264c.058-.689 0-1.35-.143-1.435-.115-.115-1.206-.115-2.383 0zm20.24 7.637c-12.402.717-23.57 5.742-32.299 14.441C6.489 46.914 1.436 59.145 1.436 72.323c0 14.556 5.971 27.677 16.939 37.295 13.006 11.399 31.151 15.045 47.804 9.647 4.794-1.579 11.944-5.455 15.216-8.297l.862-.718-.718-.488c-2.526-1.694-4.307-4.594-4.307-7.006 0-3.158 2.527-6.316 5.398-6.69 1.809-.229 4.68.345 7.666 1.522 2.096.862 2.24.862 2.613.402.2-.287.401-.689.401-.918 0-.23-2.698-3.13-5.971-6.46-8.068-8.183-11.915-12.46-12.891-14.298-.948-1.838-1.092-4.651-.288-6.144 1.005-1.924 3.675-3.56 5.771-3.56.402 0 .747-.087.747-.23 0-.115-.402-.977-.862-1.895-.976-1.895-1.062-3.101-.43-5.226.89-2.986 3.646-5.053 7.034-5.225 2.21-.086 2.9.258 6.03 3.072 1.09.976 2.009 1.637 2.009 1.436 0-.862.632-2.556 1.32-3.56l.719-1.092-1.465-3.043c-4.737-9.79-12.518-17.629-22.337-22.567-3.617-1.809-8.814-3.617-12.403-4.278-2.613-.488-8.47-1.062-9.905-.976-.46.029-1.493.086-2.297.144zm12.92 3.962c3.877.89 10.308 3.675 10.681 4.622.086.259-10.422 19.61-10.967 20.155-.058.058-.603-.172-1.235-.488-1.148-.574-3.905-1.263-6.431-1.608l-1.378-.172V26.328l3.675.172c2.01.086 4.565.373 5.656.632zm-4.335 26.27c3.446.862 5.972 2.355 8.815 5.168 3.99 3.934 5.8 8.327 5.8 13.925-.03 3.072-.26 4.393-1.408 7.293-2.067 5.282-6.718 9.56-12.374 11.455-1.924.632-2.756.718-5.828.718-3.072 0-3.905-.086-5.829-.718-9.072-3.014-14.843-11.829-13.724-21.016.575-4.766 2.269-8.154 5.771-11.657 2.757-2.785 5.283-4.278 8.671-5.168 2.9-.746 7.178-.746 10.106 0z"/><path d="M47.115 55.412c-4.738 1.263-9.073 4.824-11.169 9.245-1.378 2.871-1.78 4.623-1.78 7.896a17.402 17.402 0 009.676 15.59c2.612 1.263 4.737 1.751 7.838 1.751 5.024 0 8.613-1.493 12.23-5.053 3.704-3.675 5.283-7.408 5.283-12.49 0-3.014-.516-5.225-1.952-8.038-1.32-2.7-4.307-5.8-6.977-7.264-3.847-2.154-8.843-2.757-13.15-1.637zm8.412 9.188c1.78.89 3.732 3.072 4.307 4.794 1.98 5.771-2.125 11.657-8.154 11.657-3.446 0-6.26-1.723-7.752-4.795a8.819 8.819 0 01.028-7.953c.69-1.406 3.159-3.56 4.652-4.105 1.837-.69 5.168-.488 6.919.402zm45.823-9.274c-1.723.545-2.871 1.924-2.871 3.445 0 1.149 1.004 2.498 8.441 11.427 6.172 7.379 8.412 10.365 8.096 10.68-.086.087-.89-.401-1.809-1.09-3.244-2.44-16.48-14.155-22.366-19.81-1.263-1.235-2.67-2.326-3.1-2.441-1.177-.287-3.302.689-4.106 1.866-.948 1.407-.89 3.015.172 4.68 1.263 1.98 4.795 5.886 11.8 13.006 6.862 7.005 9.475 9.79 9.475 10.221 0 1.378-4.938-2.268-16.078-11.915-4.393-3.819-5.886-4.938-7.006-5.225-1.12-.288-2.641.114-3.617.918-.69.603-.862.977-.862 1.867 0 .631.201 1.55.46 2.067.66 1.263 3.876 4.766 12.26 13.408 4.68 4.794 7.723 8.182 8.842 9.819 3.532 5.139 3.704 7.005.776 7.522-.977.172-1.407 0-4.45-1.809-4.45-2.612-7.925-4.048-10.394-4.249l-1.924-.172-.918 1.062c-.718.833-.919 1.321-.919 2.268 0 1.666.775 2.785 3.072 4.393 2.756 1.924 4.508 3.388 6.833 5.599 2.211 2.096 3.33 2.727 8.183 4.68 5.369 2.153 10.939 3.273 19.38 3.876 2.067.143 4.134.43 4.593.603 1.149.43 2.154 1.406 2.154 2.095 0 .402.143.488.488.374.287-.115 5.139-3.044 10.795-6.546 7.924-4.881 10.25-6.432 10.135-6.805-.086-.258-.746-2.527-1.464-5.053-1.895-6.546-3.819-11.6-6.747-17.514-2.24-4.565-3.187-6.115-8.269-13.264-3.158-4.45-6.862-9.704-8.211-11.685-1.522-2.183-2.814-3.79-3.331-4.049-1.608-.832-3.244-.43-3.761.919-.402 1.091.976 3.761 5.226 10.135 3.215 4.766 4.622 7.493 4.163 7.982-.661.66-4.939-3.848-12.748-13.408-7.407-9.102-7.551-9.245-8.585-9.676-.976-.43-1.119-.43-1.808-.201zm-31.812 69.739c-3.876 2.814-8.786 4.134-13.178 3.531-1.178-.172-2.47-.43-2.843-.574-.603-.201-.746-.143-.976.488-.718 1.838-.69 2.039.345 2.383 3.301 1.063 7.866 1.063 11.37 0 2.583-.804 6.516-2.871 8.096-4.249l1.291-1.148-1.004-.977-1.005-.976-2.096 1.522zm9.159 8.182c-8.384 6.575-19.265 8.987-28.223 6.259-.976-.287-1.809-.488-1.809-.459-.2.287-1.005 2.584-.947 2.641.057.058.803.288 1.665.575 7.895 2.354 16.71 1.407 24.72-2.67 2.728-1.407 7.12-4.364 8.125-5.484.546-.603.546-.632-.258-1.464-.46-.489-.976-.862-1.12-.833-.172 0-1.148.66-2.153 1.435z"/></g><defs><clipPath id="clip0_9_62"><path fill="#fff" d="M0 0h147v147H0z"/></clipPath></defs></svg>